<svg id="Capa_1" data-name="Capa 1" xmlns="http://www.w3.org/2000/svg" viewBox="0 0 146 112"><defs><style>.cls-1{fill:#ed3b37;}.cls-2{fill:#fefefe;}.cls-3{fill:#e3f3fb;}.cls-4{fill:#f6fbfc;}.cls-5{fill:#faccbe;}</style></defs><path class="cls-1" d="M102.28,93.79c-2.71-2.64-3.44-6.07-3.78-9.64-.1-1.07-.18-2.15-.27-3.22-.47-.38-.42-.91-.46-1.43-.32-4.18-.23-8.37-.24-12.55,0-.24,0-.48,0-.72,0-1-.25-1.14-1.15-.68a12.75,12.75,0,0,0-2.94,2.23c-4.75,4.54-8.79,9.69-13,14.74-3.17,3.84-6.37,7.66-9.78,11.31a20.12,20.12,0,0,1-3.36,2.88,6.74,6.74,0,0,1-5,1.08,11.71,11.71,0,0,1-7.23-3.85C52.7,91.72,52,88.86,52,85.75c0-.48,0-1,0-1.43-.82-1.12-.44-2.39-.37-3.59.28-4.42.77-8.82,1.32-13.21a9.19,9.19,0,0,0-.07-2.59c-1.13.9-2.06,1.68-2.95,2.53-2.61,2.47-5,5.16-7.47,7.77s-5.12,5.49-7.66,8.25q-6.21,6.74-12.56,13.34a39,39,0,0,1-3.38,3c-2.59,2.13-5.6,2.26-8.74,1.71A10.09,10.09,0,0,1,5,99.12c-2.5-2.34-2.5-5.37-2.25-8.42.62-7.33,2.79-14.3,5-21.25,2.1-6.61,4.52-13.11,7-19.59.16-.41.26-.83.39-1.25a3.3,3.3,0,0,1,.38-2.07c1.2-3.13,2.41-6.24,3.5-9.4a11.11,11.11,0,0,0,.65-2.51,7,7,0,0,0-2,.8q-4,2-8.07,3.9c-1,.45-2,.71-2.88-.13A37.91,37.91,0,0,1,.56,29a4.84,4.84,0,0,1,.91-5.68A146.57,146.57,0,0,1,14.22,11c3.55-3.15,7.2-6.2,10.83-9.28a5.49,5.49,0,0,1,7.14-.52,9,9,0,0,1,2.12,1.75c3.35,3.81,7,7.34,10.5,11,.46.49.88,1,1.32,1.53.32.28.27.69.4,1A2.67,2.67,0,0,1,46,18.07c-3.26,5-5.61,10.48-8.18,15.84-3.11,6.48-6.07,13-9,19.59q-4.56,10.17-8.94,20.41c-.57,1.32-1.18,2.61-1.84,3.86,0,0,0,0,0,0a52.93,52.93,0,0,1,6-9.49c7.13-9.52,14.32-19,21.87-28.18a50.93,50.93,0,0,1,4.46-4.83c.35-.32.65-.72,1.19-.74,1.46-1.29,2.88-2.64,4.4-3.85,1.78-1.42,2.88-1.4,4.56.13,2.71,2.47,5.59,4.73,8.43,7A23.2,23.2,0,0,1,73,42.33c.34.26.39.72.68,1a4.45,4.45,0,0,1-.09,3.38c-.67,2.27-1.73,4.38-2.52,6.6-3.2,9-5.87,18.15-8.45,27.33-.28,1-.53,2-.76,2.65,1.61-2.43,3.39-5.13,5.12-7.86,4.33-6.81,8.71-13.58,13.53-20,.4-.53.71-1.19,1.48-1.31,2.33-2.77,4.53-5.66,7.13-8.2a75.57,75.57,0,0,1,8.8-7.16,2.26,2.26,0,0,1,3,.07,160,160,0,0,1,12.87,12.1,2.1,2.1,0,0,1,0,2.15C111.1,59,109.87,65.25,109,71.63a64.87,64.87,0,0,0-.7,10.24,11.07,11.07,0,0,0,.5,3.29c.4,1.18,1,1.36,2,.62,1.73-1.29,2.77-3.17,4-4.85.38-.51.7-1.07,1.07-1.59s.54-.81,1.1-.82c2-2.65,3.77-5.44,6-7.94A38.43,38.43,0,0,1,128,65.73a6.14,6.14,0,0,1,9.46,2,4,4,0,0,1,.38,4.69c-3.34,6-6.55,12.18-11.18,17.4a33.31,33.31,0,0,1-6.46,6A13.7,13.7,0,0,1,109,97.64C106.42,97,104,96.05,102.28,93.79Z"/><path class="cls-2" d="M5,99.12a17.13,17.13,0,0,0,7.22,2.24A8.9,8.9,0,0,0,19,99.13c4.8-4.45,9.17-9.34,13.65-14.11C38.44,78.88,44,72.59,50.07,66.71c.74-.73,1.52-1.41,2.32-2.08.25-.22.53-.62.9-.47s.2.63.2,1a49.58,49.58,0,0,1-.55,6.08c-.52,4.36-.9,8.73-1,13.12C48.6,87.89,45.26,91.48,41.89,95c-4.61,4.86-9,10-14,14.37-2.14,1.85-4.76,1.93-7.38,1.58a12.72,12.72,0,0,1-7.89-4.09C10.12,104.23,7.51,101.71,5,99.12Z"/><path class="cls-2" d="M55.08,93.94a17,17,0,0,0,6.71,3.29,7,7,0,0,0,6.42-1.74,98.34,98.34,0,0,0,9.45-10.34C82.09,79.9,86.3,74.47,91,69.47a31.86,31.86,0,0,1,4-3.64,7.23,7.23,0,0,1,2-1.1c.73-.24,1.12-.15,1.13.76,0,5.14.07,10.29.12,15.44a74.52,74.52,0,0,0-5.54,6.25c-5,5.88-9.66,12.07-15.19,17.51-2.8,2.76-5.82,3.11-9.31,1.69a18.71,18.71,0,0,1-6.95-5.31c-1.92-2.19-3.87-4.35-5.79-6.52A3.42,3.42,0,0,1,55.08,93.94Z"/><path class="cls-2" d="M102.28,93.79a16.23,16.23,0,0,0,8.66,3.73A13.39,13.39,0,0,0,121,94.69a56.43,56.43,0,0,0,12.67-15.75c1.26-2.17,2.47-4.37,3.72-6.54a5.23,5.23,0,0,0,.09-4.72,19.08,19.08,0,0,1,2.44,3.22c1.42,2,2.85,3.94,4.21,5.95a5.61,5.61,0,0,1,.09,6.68c-2.22,3.56-4,7.35-6.44,10.8a49.67,49.67,0,0,1-8.89,10c-3.75,3.12-8,3.75-12.59,2.54a16.05,16.05,0,0,1-8.8-6.27c-1.56-2.06-3.24-4-4.85-6.06A4.23,4.23,0,0,1,102.28,93.79Z"/><path class="cls-2" d="M17.67,78c3.26-8.26,6.92-16.36,10.56-24.46,5-11,9.94-22.09,15.58-32.81.73-1.41,1.63-2.74,2.45-4.11.15-.22,0-.54.2-.73L52,22.62c.85,1.05,1.7,2.1,2.52,3.18,1,1.32,1,2,0,3.32a26.68,26.68,0,0,0-3,5.42C40.91,45.92,32,58.62,22.55,71a78.42,78.42,0,0,0-4.69,7.5C17.44,78.45,17.55,78.23,17.67,78Z"/><path class="cls-2" d="M117,78.52a44.89,44.89,0,0,1-5.16,7c-.63.68-1.34,1.54-2.42,1.19s-1.22-1.49-1.34-2.47a49.5,49.5,0,0,1,.5-13c.82-6.13,2-12.18,4.56-17.87a4.61,4.61,0,0,0,.67-2.5c2.46,3.33,4.94,6.65,7.38,10a2.31,2.31,0,0,1,0,2.5A57,57,0,0,0,117,77.8,3.48,3.48,0,0,0,117,78.52Z"/><path class="cls-2" d="M82,54.09c-2.78,3.89-5.62,7.74-8.23,11.75C70.17,71.39,66.58,77,63,82.5A7.94,7.94,0,0,1,61,84.82c.86-3.09,1.61-5.91,2.43-8.73C66,67.29,68.56,58.49,71.9,50c.84-2.15,1.95-4.22,1.62-6.64a.18.18,0,0,1,0-.3,48,48,0,0,1,3.83,4.71A41.87,41.87,0,0,1,82,54.09Z"/><path class="cls-2" d="M6.63,39.2A2.48,2.48,0,0,0,9,39.05c3.48-1.69,7-3.34,10.47-5,.24-.12.49-.21,1-.41a131.82,131.82,0,0,1-5.36,15C12.75,46,10.43,43.48,8.12,40.9,7.61,40.34,7.13,39.77,6.63,39.2Z"/><path class="cls-3" d="M46.46,15.89a1,1,0,0,1-.2.74c0-.39-.08-.77-.13-1.15A.47.47,0,0,1,46.46,15.89Z"/><path class="cls-4" d="M73.56,43l0,.3-.5-1C73.38,42.41,73.49,42.7,73.56,43Z"/><path class="cls-5" d="M17.67,78l.19.45a1.1,1.1,0,0,1-.62.74A2,2,0,0,1,17.67,78Z"/></svg>