<svg id="Layer_1" data-name="Layer 1" xmlns="http://www.w3.org/2000/svg" viewBox="0 0 512 512"><defs><style>.cls-1{fill:#37638e;}</style></defs><path class="cls-1" d="M148,379.32c-22.37-1.15-21.94-32.61,0-33.7,62.17.22,226.14.06,290.29.1a37.3,37.3,0,0,0,36.5-29L511.21,159a30.31,30.31,0,0,0-29.41-37.14c-25.8,0-244.85-1-357-1.44L107,54.41A36.33,36.33,0,0,0,72,27.62H15a15,15,0,0,0,0,30H72a6.26,6.26,0,0,1,6,4.59l68.3,253.41a46.84,46.84,0,0,0-45.15,47.65,47.08,47.08,0,0,0,46.85,46h21.89a52.53,52.53,0,1,0,94.9,0h94.76a52.54,52.54,0,1,0,94.52-.79,15,15,0,0,0-4.78-29.22Zm91.85,52.53a22.52,22.52,0,1,1-22.53-22.52h0A22.54,22.54,0,0,1,239.85,431.85ZM407,454.35a22.51,22.51,0,0,1-.36-45h.73a22.51,22.51,0,0,1-.37,45ZM481.91,152a.23.23,0,0,1,.06.25l-15.35,66.46h-52l8.85-67.06,58.18.24a.23.23,0,0,1,.23.11ZM327.18,315.71v-67h53.23l-8.84,67Zm-74.42,0-8.92-67h53.33v67Zm-69.09,0h0a8.15,8.15,0,0,1-7.83-6l-16.45-61h54.22l8.92,67Zm56.18-97-9-67.83,66.35.26v67.57Zm87.33,0V151.22l66.06.27-8.87,67.18Zm-126.65-68,9,68H151.25l-18.39-68.23Zm237.76,165H401.84l8.85-67h49l-14.15,61.25A7.41,7.41,0,0,1,438.29,315.71Z"/></svg>